<?xml version="1.0" encoding="iso-8859-1"?>
<!-- Generator: Adobe Illustrator 19.0.0, SVG Export Plug-In . SVG Version: 6.00 Build 0)  -->
<svg xmlns="http://www.w3.org/2000/svg" xmlns:xlink="http://www.w3.org/1999/xlink" version="1.1" id="Layer_1" x="0px" y="0px" viewBox="0 0 512 512" style="enable-background:new 0 0 512 512;" xml:space="preserve">
<g>
	<g>
		<g>
			<path d="M454.645,311.582H348.69v-10.667c0-25.783,11.208-53.333,42.667-53.333c22.646,0,33.065,14.089,37.817,25.907     c2.198,5.467,8.414,8.113,13.876,5.918c5.466-2.198,8.114-8.411,5.918-13.876c-8.652-21.519-25.453-35.117-46.944-38.464V108.971     c0-2.829-1.124-5.542-3.125-7.542L300.583,3.124c-1.999-2-4.711-3.124-7.54-3.124H64.69C46.333,0,31.399,14.934,31.399,33.291     v445.419C31.399,497.066,46.333,512,64.69,512h304.043c18.356,0,33.291-14.934,33.291-33.291v-21.925h52.622     c14.313,0,25.956-11.644,25.956-25.956v-93.291C480.601,323.226,468.957,311.582,454.645,311.582z M365.603,98.304h-61.894     V36.416l-0.002-0.002L365.603,98.304z M380.691,478.709h-0.001c0,6.594-5.363,11.957-11.957,11.957H64.69     c-6.594,0-11.957-5.363-11.957-11.957V33.291c0-6.594,5.363-11.957,11.957-11.957h217.685v87.637     c0,5.89,4.776,10.667,10.667,10.667h87.648v107.398l0.013,0.005c-12.842,1.953-23.949,7.526-32.755,16.438     c-0.189-0.01-0.377-0.029-0.569-0.029H143.8c-5.89,0-10.667,4.777-10.667,10.667s4.777,10.667,10.667,10.667h190.234     c-4.389,10.565-6.677,22.778-6.677,36.131V311.6c-13.984,0.379-25.245,11.865-25.245,25.937v49.914H97.779     c-5.89,0-10.667,4.777-10.667,10.667s4.777,10.667,10.667,10.667h204.334v22.044c0,14.313,11.644,25.956,25.956,25.956h52.622     V478.709z M459.268,430.828L459.268,430.828c0,2.549-2.074,4.623-4.623,4.623H328.068c-2.549,0-4.623-2.074-4.623-4.623v-93.291     c0-2.549,2.074-4.622,4.623-4.622h126.577c2.549,0,4.623,2.073,4.623,4.622V430.828z"/>
			<path d="M391.356,367.792c-5.89,0-10.667,4.777-10.667,10.667v11.45c0,5.89,4.777,10.667,10.667,10.667     s10.667-4.777,10.667-10.667v-11.45C402.023,372.568,397.247,367.792,391.356,367.792z"/>
			<path d="M97.779,120.784h126.933c5.89,0,10.667-4.777,10.667-10.667s-4.776-10.667-10.667-10.667H97.779     c-5.89,0-10.667,4.776-10.667,10.667S91.889,120.784,97.779,120.784z"/>
			<path d="M120.179,158.117c0,5.89,4.776,10.667,10.667,10.667h144c5.89,0,10.667-4.776,10.667-10.667s-4.777-10.667-10.667-10.667     h-144C124.955,147.451,120.179,152.227,120.179,158.117z"/>
			<path d="M274.845,195.451h-144c-5.89,0-10.667,4.777-10.667,10.667s4.776,10.667,10.667,10.667h144     c5.89,0,10.667-4.776,10.667-10.667S280.735,195.451,274.845,195.451z"/>
			<path d="M97.779,264.784h1.088c5.89,0,10.667-4.776,10.667-10.667s-4.776-10.667-10.667-10.667h-1.088     c-5.89,0-10.667,4.777-10.667,10.667S91.889,264.784,97.779,264.784z"/>
			<path d="M120.179,302.117c0,5.89,4.776,10.667,10.667,10.667h144c5.89,0,10.667-4.777,10.667-10.667s-4.777-10.667-10.667-10.667     h-144C124.955,291.451,120.179,296.227,120.179,302.117z"/>
			<path d="M261.002,339.451H130.845c-5.89,0-10.667,4.776-10.667,10.667s4.776,10.667,10.667,10.667h130.157     c5.89,0,10.667-4.777,10.667-10.667S266.893,339.451,261.002,339.451z"/>
			<path d="M274.845,435.451h-144c-5.89,0-10.667,4.777-10.667,10.667s4.776,10.667,10.667,10.667h144     c5.89,0,10.667-4.776,10.667-10.667S280.735,435.451,274.845,435.451z"/>
		</g>
	</g>
</g>
<g>
</g>
<g>
</g>
<g>
</g>
<g>
</g>
<g>
</g>
<g>
</g>
<g>
</g>
<g>
</g>
<g>
</g>
<g>
</g>
<g>
</g>
<g>
</g>
<g>
</g>
<g>
</g>
<g>
</g>
</svg>
