<?xml version="1.0" encoding="iso-8859-1"?>
<!-- Generator: Adobe Illustrator 19.0.0, SVG Export Plug-In . SVG Version: 6.00 Build 0)  -->
<svg xmlns="http://www.w3.org/2000/svg" xmlns:xlink="http://www.w3.org/1999/xlink" version="1.1" id="Layer_1" x="0px" y="0px" viewBox="0 0 511.999 511.999" style="enable-background:new 0 0 511.999 511.999;" xml:space="preserve">
<g>
	<g>
		<g>
			<path d="M501.438,135.843h-8.449V99.26c0-5.833-4.729-10.561-10.562-10.561H212.18l-22.697-22.233     c-8.437-8.264-19.587-12.816-31.398-12.816H44.868C20.128,53.649,0,73.777,0,98.517v296.66c0,34.834,28.34,63.174,63.174,63.174     h385.652c34.834,0,63.174-28.34,63.174-63.174V146.405C512,140.572,507.272,135.843,501.438,135.843z M471.866,109.821v26.022     H260.309l-26.565-26.022H471.866z M490.877,395.177c0,23.187-18.864,42.051-42.051,42.051H63.174     c-23.187,0-42.051-18.864-42.051-42.051V98.517c0-13.093,10.652-23.745,23.745-23.745h113.217c6.25,0,12.151,2.409,16.615,6.783     l55.422,54.289h-28.279c-5.832,0-10.561,4.728-10.561,10.562s4.729,10.561,10.561,10.561h289.033V395.177z"/>
			<path d="M42.13,230.222v105.615c0,5.833,4.729,10.562,10.561,10.562h406.617c5.832,0,10.562-4.728,10.562-10.562V230.222     c0-5.833-4.729-10.562-10.562-10.562H52.691C46.858,219.661,42.13,224.389,42.13,230.222z M63.253,240.784h385.494v84.492H63.253     V240.784z"/>
			<path d="M303.262,266.226c-4.125-4.124-10.811-4.124-14.937,0l-1.867,1.867l-1.867-1.867c-4.125-4.124-10.811-4.124-14.937,0     c-4.124,4.124-4.124,10.812,0,14.937l1.867,1.867l-1.867,1.867c-4.124,4.124-4.124,10.812,0,14.937     c2.063,2.063,4.765,3.093,7.468,3.093c2.703,0,5.405-1.031,7.468-3.093l1.867-1.867l1.867,1.867     c2.063,2.063,4.765,3.093,7.468,3.093s5.405-1.031,7.468-3.093c4.124-4.124,4.124-10.812,0-14.937l-1.867-1.867l1.867-1.867     C307.386,277.038,307.386,270.35,303.262,266.226z"/>
			<path d="M425.094,266.226c-4.125-4.124-10.811-4.124-14.937,0l-1.867,1.867l-1.867-1.867c-4.125-4.124-10.811-4.124-14.937,0     c-4.124,4.124-4.124,10.812,0,14.937l1.867,1.867l-1.867,1.867c-4.124,4.124-4.124,10.812,0,14.937     c2.063,2.063,4.765,3.093,7.468,3.093s5.405-1.031,7.468-3.093l1.867-1.867l1.867,1.867c2.063,2.063,4.765,3.093,7.468,3.093     s5.405-1.031,7.468-3.093c4.124-4.124,4.124-10.812,0-14.937l-1.867-1.867l1.867-1.867     C429.218,277.038,429.218,270.35,425.094,266.226z"/>
			<path d="M120.512,266.226c-4.125-4.124-10.813-4.124-14.937,0l-1.866,1.866l-1.866-1.866c-4.123-4.124-10.809-4.124-14.937,0     c-4.124,4.124-4.124,10.812,0,14.936l1.867,1.867l-1.867,1.867c-4.124,4.124-4.124,10.812,0,14.936     c2.063,2.063,4.765,3.093,7.468,3.093s5.406-1.032,7.468-3.093l1.866-1.866l1.866,1.866c2.063,2.063,4.765,3.093,7.468,3.093     c2.703,0,5.405-1.032,7.468-3.093c4.124-4.124,4.124-10.812,0-14.936l-1.867-1.867l1.867-1.867     C124.637,277.038,124.637,270.35,120.512,266.226z"/>
			<path d="M364.177,266.226c-4.125-4.124-10.811-4.124-14.937,0l-1.867,1.867l-1.867-1.867c-4.125-4.124-10.811-4.124-14.937,0     c-4.124,4.124-4.124,10.812,0,14.937l1.867,1.867l-1.867,1.867c-4.124,4.124-4.124,10.812,0,14.937     c2.063,2.063,4.765,3.093,7.468,3.093s5.405-1.031,7.468-3.093l1.867-1.867l1.867,1.867c2.063,2.063,4.765,3.093,7.468,3.093     s5.405-1.031,7.468-3.093c4.124-4.124,4.124-10.812,0-14.937l-1.867-1.867l1.867-1.867     C368.302,277.038,368.302,270.35,364.177,266.226z"/>
			<path d="M242.345,266.226c-4.125-4.124-10.811-4.124-14.937,0l-1.867,1.867l-1.867-1.867c-4.125-4.124-10.811-4.124-14.937,0     c-4.124,4.124-4.124,10.812,0,14.937l1.867,1.867l-1.867,1.867c-4.124,4.124-4.124,10.812,0,14.937     c2.063,2.063,4.765,3.093,7.468,3.093s5.405-1.031,7.468-3.093l1.867-1.867l1.867,1.867c2.063,2.063,4.765,3.093,7.468,3.093     s5.405-1.031,7.468-3.093c4.124-4.124,4.124-10.812,0-14.937l-1.867-1.867l1.867-1.867     C246.469,277.038,246.469,270.35,242.345,266.226z"/>
			<path d="M181.428,266.226c-4.125-4.124-10.811-4.124-14.937,0l-1.867,1.867l-1.867-1.867c-4.125-4.124-10.811-4.124-14.937,0     c-4.124,4.124-4.124,10.812,0,14.937l1.867,1.867l-1.867,1.867c-4.124,4.124-4.124,10.812,0,14.937     c2.063,2.063,4.765,3.093,7.468,3.093s5.405-1.031,7.468-3.093l1.867-1.867l1.867,1.867c2.063,2.063,4.765,3.093,7.468,3.093     s5.405-1.031,7.468-3.093c4.124-4.124,4.124-10.812,0-14.937l-1.867-1.867l1.867-1.867     C185.553,277.038,185.553,270.35,181.428,266.226z"/>
			<path d="M155.29,156.966h2.196c5.832,0,10.561-4.728,10.561-10.561s-4.729-10.562-10.561-10.562h-2.196     c-5.832,0-10.562,4.728-10.562,10.562S149.458,156.966,155.29,156.966z"/>
		</g>
	</g>
</g>
<g>
</g>
<g>
</g>
<g>
</g>
<g>
</g>
<g>
</g>
<g>
</g>
<g>
</g>
<g>
</g>
<g>
</g>
<g>
</g>
<g>
</g>
<g>
</g>
<g>
</g>
<g>
</g>
<g>
</g>
</svg>
