<?xml version="1.0" encoding="iso-8859-1"?>
<!-- Generator: Adobe Illustrator 19.0.0, SVG Export Plug-In . SVG Version: 6.00 Build 0)  -->
<svg xmlns="http://www.w3.org/2000/svg" xmlns:xlink="http://www.w3.org/1999/xlink" version="1.1" id="Layer_1" x="0px" y="0px" viewBox="0 0 512 512" style="enable-background:new 0 0 512 512;" xml:space="preserve">
<g>
	<g>
		<g>
			<path d="M501.657,351.677H468.04V123.863c0-22.671-18.444-41.115-41.115-41.115H85.075c-22.671,0-41.115,18.444-41.115,41.115     v227.814H10.343C4.631,351.677,0,356.308,0,362.02v14.825c0,28.897,23.51,52.407,52.407,52.407h407.187     c28.896,0,52.406-23.51,52.406-52.407V362.02C512,356.308,507.369,351.677,501.657,351.677z M64.646,123.863     c0-11.264,9.164-20.428,20.428-20.428h341.851c11.264,0,20.428,9.164,20.428,20.428v227.814H64.646V123.863z M491.313,376.845     c0,17.491-14.229,31.72-31.72,31.72H52.407c-17.491,0-31.72-14.229-31.72-31.72v-4.482h470.626V376.845z"/>
			<path d="M416.323,124.121H309.441c-5.713,0-10.343,4.631-10.343,10.343s4.631,10.343,10.343,10.343h106.882     c5.713,0,10.343-4.631,10.343-10.343C426.667,128.752,422.036,124.121,416.323,124.121z"/>
			<path d="M274.963,134.465c0-5.713-4.631-10.343-10.343-10.343h-2.759c-5.713,0-10.343,4.631-10.343,10.343     s4.631,10.343,10.343,10.343h2.759C270.332,144.808,274.963,140.177,274.963,134.465z"/>
			<path d="M162.909,210.662v-10.343c0-17.11-13.92-31.03-31.03-31.03s-31.03,13.92-31.03,31.03v10.343     c0,17.11,13.92,31.03,31.03,31.03S162.909,227.772,162.909,210.662z M142.222,210.662c0,5.703-4.64,10.343-10.343,10.343     s-10.343-4.64-10.343-10.343v-10.343c0-5.703,4.64-10.343,10.343-10.343s10.343,4.64,10.343,10.343V210.662z"/>
			<path d="M173.253,258.93c-17.11,0-31.03,13.92-31.03,31.03v10.343c0,17.11,13.92,31.03,31.03,31.03     c17.11,0,31.03-13.92,31.03-31.03v-10.343C204.283,272.85,190.363,258.93,173.253,258.93z M183.596,300.304     c0,5.703-4.64,10.343-10.343,10.343c-5.703,0-10.343-4.64-10.343-10.343v-10.343c0-5.703,4.64-10.343,10.343-10.343     c5.703,0,10.343,4.64,10.343,10.343V300.304z"/>
			<path d="M297.374,258.93c-17.11,0-31.03,13.92-31.03,31.03v10.343c0,17.11,13.92,31.03,31.03,31.03     c17.11,0,31.03-13.92,31.03-31.03v-10.343C328.404,272.85,314.484,258.93,297.374,258.93z M307.717,300.304     c0,5.703-4.64,10.343-10.343,10.343c-5.703,0-10.343-4.64-10.343-10.343v-10.343c0-5.703,4.64-10.343,10.343-10.343     c5.703,0,10.343,4.64,10.343,10.343V300.304z"/>
			<path d="M338.747,169.288c-17.11,0-31.03,13.92-31.03,31.03v10.343c0,17.11,13.92,31.03,31.03,31.03s31.03-13.92,31.03-31.03     v-10.343C369.778,183.208,355.858,169.288,338.747,169.288z M349.091,210.662c0,5.703-4.64,10.343-10.343,10.343     s-10.343-4.64-10.343-10.343v-10.343c0-5.703,4.64-10.343,10.343-10.343s10.343,4.64,10.343,10.343V210.662z"/>
			<path d="M193.939,169.288c-5.713,0-10.343,4.631-10.343,10.343v51.717c0,5.713,4.631,10.343,10.343,10.343     c5.713,0,10.343-4.631,10.343-10.343v-51.717C204.283,173.919,199.652,169.288,193.939,169.288z"/>
			<path d="M111.192,258.93c-5.713,0-10.343,4.631-10.343,10.343v51.717c0,5.713,4.631,10.343,10.343,10.343     c5.713,0,10.343-4.631,10.343-10.343v-51.717C121.535,263.561,116.905,258.93,111.192,258.93z"/>
			<path d="M235.313,169.288c-5.713,0-10.343,4.631-10.343,10.343v51.717c0,5.713,4.631,10.343,10.343,10.343     c5.713,0,10.343-4.631,10.343-10.343v-51.717C245.657,173.919,241.026,169.288,235.313,169.288z"/>
			<path d="M359.434,258.93c-5.713,0-10.343,4.631-10.343,10.343v51.717c0,5.713,4.631,10.343,10.343,10.343     c5.713,0,10.343-4.631,10.343-10.343v-51.717C369.778,263.561,365.147,258.93,359.434,258.93z"/>
			<path d="M266.343,179.631v51.717c0,5.713,4.631,10.343,10.343,10.343s10.343-4.631,10.343-10.343v-51.717     c0-5.713-4.631-10.343-10.343-10.343S266.343,173.919,266.343,179.631z"/>
			<path d="M400.808,169.288c-5.713,0-10.343,4.631-10.343,10.343v51.717c0,5.713,4.631,10.343,10.343,10.343     s10.343-4.631,10.343-10.343v-51.717C411.152,173.919,406.521,169.288,400.808,169.288z"/>
			<path d="M400.808,258.93c-5.713,0-10.343,4.631-10.343,10.343v51.717c0,5.713,4.631,10.343,10.343,10.343     s10.343-4.631,10.343-10.343v-51.717C411.152,263.561,406.521,258.93,400.808,258.93z"/>
			<path d="M235.313,258.93c-5.713,0-10.343,4.631-10.343,10.343v51.717c0,5.713,4.631,10.343,10.343,10.343     c5.713,0,10.343-4.631,10.343-10.343v-51.717C245.657,263.561,241.026,258.93,235.313,258.93z"/>
		</g>
	</g>
</g>
<g>
</g>
<g>
</g>
<g>
</g>
<g>
</g>
<g>
</g>
<g>
</g>
<g>
</g>
<g>
</g>
<g>
</g>
<g>
</g>
<g>
</g>
<g>
</g>
<g>
</g>
<g>
</g>
<g>
</g>
</svg>
