<?xml version="1.0" encoding="iso-8859-1"?>
<!-- Generator: Adobe Illustrator 19.0.0, SVG Export Plug-In . SVG Version: 6.00 Build 0)  -->
<svg xmlns="http://www.w3.org/2000/svg" xmlns:xlink="http://www.w3.org/1999/xlink" version="1.1" id="Layer_1" x="0px" y="0px" viewBox="0 0 512 512" style="enable-background:new 0 0 512 512;" xml:space="preserve">
<g>
	<g>
		<g>
			<path d="M512,256c0-68.38-26.629-132.667-74.981-181.019C388.668,26.629,324.38,0,256,0c-42.396,0-83.214,10.246-119.641,29.548     c-49.413-19.661-87.464-19.19-108.415,1.76C6.613,52.64,6.257,90.739,26.893,141.505C9.305,176.613,0,215.591,0,256     c0,68.38,26.629,132.667,74.981,181.019C123.333,485.371,187.62,512,256,512c41.656,0,81.787-9.9,117.728-28.556     c23.719,9.363,44.81,14.081,62.616,14.08c19.011-0.001,34.294-5.36,45.057-16.123c20.978-20.978,21.662-58.178,2.053-107.692     C502.104,337.773,512,297.649,512,256z M44.035,47.4c11.785-11.785,35.875-12.459,67.248-2.634     c-12.866,8.853-25.023,18.935-36.303,30.215c-12.594,12.594-23.699,26.277-33.26,40.825C31.447,83.748,32.134,59.3,44.035,47.4z      M465.31,465.31c-11.643,11.646-35.303,12.446-66.133,2.983c13.437-9.103,26.112-19.544,37.842-31.273     c11.743-11.743,22.192-24.431,31.301-37.885C477.854,430.093,476.933,453.688,465.31,465.31z M372.225,458.169     c-3.518-1.541-7.091-3.174-10.726-4.925c-53.998-26.015-115.057-71.664-171.93-128.538     c-27.902-27.902-53.688-57.542-75.61-86.826l41.67,10.737c6.087,1.57,12.289-2.095,13.857-8.178     c1.568-6.085-2.094-12.289-8.178-13.857l-71.798-18.5c-3.353-0.864-6.92-0.152-9.686,1.931c-2.767,2.084-4.433,5.316-4.526,8.779     l-2.007,74.116c-0.169,6.282,4.784,11.511,11.066,11.682c0.105,0.003,0.209,0.005,0.313,0.005     c6.141,0,11.201-4.894,11.368-11.069l1.088-40.178c22.273,29.554,48.282,59.38,76.355,87.453     c56.763,56.763,117.865,102.822,172.734,130.289c-27.766,11.687-58.248,18.157-90.214,18.157     C127.388,489.244,22.756,384.612,22.756,256c0-85.568,46.325-160.507,115.203-201.094c3.247,1.434,6.541,2.948,9.887,4.56     c53.997,26.015,115.057,71.664,171.928,128.537c27.903,27.902,53.689,57.543,75.611,86.826l-41.67-10.737     c-6.088-1.57-12.29,2.094-13.857,8.178c-1.568,6.085,2.094,12.289,8.178,13.857l71.798,18.501c0.936,0.241,1.89,0.36,2.839,0.36     c2.445,0,4.854-0.788,6.848-2.292c2.766-2.084,4.433-5.316,4.526-8.779l2.006-74.117c0.17-6.282-4.784-11.512-11.066-11.682     c-0.106-0.003-0.209-0.005-0.313-0.005c-6.141,0-11.201,4.894-11.368,11.069l-1.088,40.178     c-22.273-29.554-48.28-59.379-76.355-87.453c-56.603-56.603-117.52-102.558-172.27-130.053     C191.947,29.579,223.189,22.756,256,22.756c128.611,0,233.244,104.632,233.244,233.244     C489.244,342.321,442.109,417.838,372.225,458.169z"/>
			<path d="M141.959,373.639c2.22,2.208,5.122,3.312,8.025,3.312c2.921,0,5.844-1.118,8.066-3.353     c4.432-4.456,4.413-11.659-0.042-16.09l-0.619-0.621c-4.443-4.443-11.647-4.443-16.092,0c-4.443,4.443-4.443,11.647,0,16.092     L141.959,373.639z"/>
			<path d="M221.404,444.2c2.082,1.633,4.556,2.423,7.012,2.423c3.376,0,6.717-1.496,8.962-4.359     c3.875-4.944,3.008-12.096-1.936-15.973c-16.547-12.972-33.151-27.077-49.352-41.923c-4.633-4.246-11.828-3.931-16.075,0.702     c-4.245,4.633-3.931,11.829,0.702,16.075C187.345,416.383,204.398,430.868,221.404,444.2z"/>
			<path d="M366.729,138.416c-4.453-4.436-11.655-4.421-16.092,0.031c-4.434,4.452-4.42,11.657,0.031,16.09l1.282,1.28     c2.221,2.225,5.136,3.338,8.05,3.338c2.909,0,5.819-1.109,8.04-3.327c4.446-4.441,4.451-11.644,0.01-16.09L366.729,138.416z"/>
			<path d="M269.073,54.17c-5.057-3.724-12.183-2.641-15.907,2.42c-3.724,5.061-2.64,12.183,2.421,15.907     c21.448,15.783,43.016,33.478,64.106,52.595c2.178,1.974,4.912,2.948,7.638,2.948c3.099,0,6.187-1.26,8.433-3.737     c4.22-4.656,3.866-11.851-0.788-16.071C313.314,88.599,291.143,70.409,269.073,54.17z"/>
		</g>
	</g>
</g>
<g>
</g>
<g>
</g>
<g>
</g>
<g>
</g>
<g>
</g>
<g>
</g>
<g>
</g>
<g>
</g>
<g>
</g>
<g>
</g>
<g>
</g>
<g>
</g>
<g>
</g>
<g>
</g>
<g>
</g>
</svg>
