<?xml version="1.0" encoding="iso-8859-1"?>
<!-- Generator: Adobe Illustrator 19.0.0, SVG Export Plug-In . SVG Version: 6.00 Build 0)  -->
<svg xmlns="http://www.w3.org/2000/svg" xmlns:xlink="http://www.w3.org/1999/xlink" version="1.1" id="Layer_1" x="0px" y="0px" viewBox="0 0 512 512" style="enable-background:new 0 0 512 512;" xml:space="preserve">
<g>
	<g>
		<g>
			<path d="M377.436,50.032c-32.853-32.607-76.43-50.356-122.755-50.028C160.668,0.709,83.928,77.777,83.614,171.801     c-0.152,45.628,17.352,88.693,49.288,121.263c29.356,29.94,45.524,69.427,45.524,111.194v26.405     c0,17.933,12.41,33.013,29.09,37.126v5.971c0,21.085,17.155,38.24,38.24,38.24h20.488c21.085,0,38.24-17.155,38.24-38.24v-5.971     c16.681-4.112,29.09-19.193,29.09-37.126v-26.405c0-41.49,16.34-81.763,44.831-110.49     c32.231-32.501,49.981-75.609,49.981-121.382C428.387,126.096,410.293,82.643,377.436,50.032z M266.244,490.452h-20.488     c-9.203,0-16.691-7.488-16.691-16.691v-4.857h53.871v4.857h0C282.935,482.964,275.447,490.452,266.244,490.452z M312.026,430.664     c0,9.203-7.488,16.691-16.691,16.691h-78.669c-9.203,0-16.691-7.488-16.691-16.691v-15.631h112.051V430.664z M363.105,278.594     c-29.981,30.231-48.153,71.613-50.755,114.891h-24.028V310.97l15.061-19.478c3.64-4.707,2.774-11.473-1.933-15.114     c-4.707-3.637-11.473-2.774-15.114,1.933L269.025,300.7c-1.459,1.888-2.251,4.205-2.251,6.591v86.193h-21.548v-86.193     c0-2.385-0.792-4.703-2.251-6.591l-45.252-58.522c-3.64-4.708-10.407-5.572-15.114-1.933c-4.707,3.641-5.572,10.407-1.933,15.114     l43.001,55.611v82.514h-24.02c-2.559-43.423-20.572-84.097-51.37-115.506c-27.943-28.499-43.258-66.181-43.125-106.105     c0.274-82.272,67.419-149.705,149.68-150.32c40.502-0.269,78.667,15.241,107.413,43.773     c28.75,28.534,44.583,66.555,44.583,107.06C406.839,212.438,391.308,250.157,363.105,278.594z"/>
			<path d="M329.389,240.244c-4.709-3.64-11.474-2.773-15.113,1.935l-0.274,0.354c-3.639,4.708-2.773,11.474,1.935,15.114     c1.962,1.516,4.281,2.25,6.581,2.25c3.221,0,6.41-1.438,8.532-4.185l0.274-0.354C334.964,250.65,334.097,243.884,329.389,240.244     z"/>
			<path d="M360.349,151.431l-48.979-41.875c-4.522-3.867-11.324-3.335-15.191,1.188c-3.867,4.522-3.336,11.324,1.188,15.19     l39.401,33.687l-39.401,33.687c-4.523,3.867-5.055,10.668-1.188,15.19c2.131,2.492,5.153,3.773,8.194,3.773     c2.476,0,4.966-0.849,6.996-2.585l48.979-41.875c2.395-2.046,3.773-5.039,3.773-8.189     C364.121,156.473,362.743,153.477,360.349,151.431z"/>
			<path d="M217.977,110.744c-3.867-4.523-10.669-5.056-15.19-1.188l-48.979,41.875c-2.395,2.046-3.773,5.039-3.773,8.189     c0,3.15,1.378,6.142,3.773,8.189l48.979,41.875c2.03,1.736,4.519,2.585,6.996,2.585c3.04,0,6.064-1.28,8.194-3.773     c3.867-4.522,3.336-11.324-1.188-15.19l-39.401-33.687l39.401-33.687C221.311,122.067,221.844,115.267,217.977,110.744z"/>
			<path d="M271.721,90.91c-5.819-1.238-11.542,2.472-12.784,8.292l-24.795,116.347c-1.24,5.819,2.472,11.542,8.292,12.782     c0.757,0.161,1.512,0.239,2.256,0.239c4.977,0,9.448-3.468,10.527-8.531l24.796-116.346     C281.254,97.873,277.541,92.151,271.721,90.91z"/>
		</g>
	</g>
</g>
<g>
</g>
<g>
</g>
<g>
</g>
<g>
</g>
<g>
</g>
<g>
</g>
<g>
</g>
<g>
</g>
<g>
</g>
<g>
</g>
<g>
</g>
<g>
</g>
<g>
</g>
<g>
</g>
<g>
</g>
</svg>
