<?xml version="1.0" encoding="iso-8859-1"?>
<!-- Generator: Adobe Illustrator 19.0.0, SVG Export Plug-In . SVG Version: 6.00 Build 0)  -->
<svg xmlns="http://www.w3.org/2000/svg" xmlns:xlink="http://www.w3.org/1999/xlink" version="1.1" id="Layer_1" x="0px" y="0px" viewBox="0 0 512 512" style="enable-background:new 0 0 512 512;" xml:space="preserve">
<g>
	<g>
		<g>
			<path d="M455.355,311.6v-10.685c0-20.582-5.403-38.481-15.626-51.761c-9.428-12.247-22.327-19.77-37.707-22.111V108.971     c0-2.829-1.124-5.542-3.125-7.542L300.583,3.124c-1.999-2-4.711-3.124-7.541-3.124H64.69C46.333,0,31.399,14.934,31.399,33.291     v445.419C31.399,497.066,46.332,512,64.69,512h304.043c18.357,0,33.292-14.934,33.292-33.291v-21.925h52.622     c14.311,0,25.955-11.644,25.955-25.956v-93.291C480.6,323.465,469.339,311.979,455.355,311.6z M434.022,300.915v10.667h-85.333     v-10.667c0-25.783,11.208-53.333,42.668-53.333C422.813,247.582,434.022,275.133,434.022,300.915z M365.603,98.304h-61.894     V36.416l-0.002-0.002L365.603,98.304z M380.69,478.709c0,6.594-5.364,11.957-11.958,11.957H64.69     c-6.593,0-11.957-5.363-11.957-11.957V33.291c0-6.594,5.364-11.957,11.957-11.957h217.686v87.637     c0,5.89,4.777,10.667,10.667,10.667h87.648v107.398l0.013,0.005c-12.842,1.953-23.95,7.526-32.756,16.438     c-0.19-0.01-0.377-0.029-0.569-0.029H151.112c-5.891,0-10.667,4.777-10.667,10.667s4.776,10.667,10.667,10.667h182.922     c-4.389,10.565-6.677,22.778-6.677,36.131V311.6c-13.983,0.379-25.244,11.865-25.244,25.937v49.914H97.778     c-5.891,0-10.667,4.777-10.667,10.667s4.776,10.667,10.667,10.667h204.334v22.044c0,14.313,11.644,25.956,25.955,25.956h52.623     V478.709z M459.267,430.828L459.267,430.828c0,2.549-2.073,4.623-4.622,4.623H328.067c-2.549,0-4.622-2.074-4.622-4.623v-93.291     c0-2.549,2.073-4.622,4.622-4.622h126.578c2.549,0,4.622,2.073,4.622,4.622V430.828z"/>
			<path d="M391.355,367.792c-5.89,0-10.667,4.777-10.667,10.667v11.45c0,5.89,4.777,10.667,10.667,10.667     s10.667-4.777,10.667-10.667v-11.45C402.022,372.568,397.246,367.792,391.355,367.792z"/>
			<path d="M97.778,120.784h126.933c5.89,0,10.667-4.777,10.667-10.667s-4.776-10.667-10.667-10.667H97.778     c-5.891,0-10.667,4.776-10.667,10.667S91.886,120.784,97.778,120.784z"/>
			<path d="M120.178,158.117c0,5.89,4.775,10.667,10.667,10.667h144c5.89,0,10.667-4.776,10.667-10.667s-4.777-10.667-10.667-10.667     h-144C124.953,147.451,120.178,152.227,120.178,158.117z"/>
			<path d="M274.844,195.451h-144c-5.891,0-10.667,4.777-10.667,10.667s4.775,10.667,10.667,10.667h144     c5.89,0,10.667-4.776,10.667-10.667S280.734,195.451,274.844,195.451z"/>
			<path d="M97.778,264.784h2.133c5.891,0,10.667-4.776,10.667-10.667s-4.775-10.667-10.667-10.667h-2.133     c-5.891,0-10.667,4.777-10.667,10.667S91.886,264.784,97.778,264.784z"/>
			<path d="M120.178,302.117c0,5.89,4.775,10.667,10.667,10.667h144c5.89,0,10.667-4.777,10.667-10.667s-4.777-10.667-10.667-10.667     h-144C124.953,291.451,120.178,296.227,120.178,302.117z"/>
			<path d="M261.001,339.451H130.844c-5.891,0-10.667,4.776-10.667,10.667s4.775,10.667,10.667,10.667h130.157     c5.89,0,10.667-4.777,10.667-10.667S266.892,339.451,261.001,339.451z"/>
			<path d="M274.844,435.451h-144c-5.891,0-10.667,4.777-10.667,10.667s4.775,10.667,10.667,10.667h144     c5.89,0,10.667-4.776,10.667-10.667S280.734,435.451,274.844,435.451z"/>
		</g>
	</g>
</g>
<g>
</g>
<g>
</g>
<g>
</g>
<g>
</g>
<g>
</g>
<g>
</g>
<g>
</g>
<g>
</g>
<g>
</g>
<g>
</g>
<g>
</g>
<g>
</g>
<g>
</g>
<g>
</g>
<g>
</g>
</svg>
