<?xml version="1.0" encoding="iso-8859-1"?>
<!-- Generator: Adobe Illustrator 19.0.0, SVG Export Plug-In . SVG Version: 6.00 Build 0)  -->
<svg xmlns="http://www.w3.org/2000/svg" xmlns:xlink="http://www.w3.org/1999/xlink" version="1.1" id="Layer_1" x="0px" y="0px" viewBox="0 0 512 512" style="enable-background:new 0 0 512 512;" xml:space="preserve">
<g>
	<g>
		<g>
			<path d="M501.221,315.465H366.484c-5.953,0-10.779,4.827-10.779,10.779v32.337h-21.558v-32.337     c0-5.952-4.826-10.779-10.779-10.779H188.632c-5.953,0-10.779,4.827-10.779,10.779v32.337h-21.558v-32.337     c0-5.952-4.826-10.779-10.779-10.779H88.926V153.421h67.368v32.337c0,5.952,4.826,10.779,10.779,10.779h177.853     c5.953,0,10.779-4.827,10.779-10.779v-32.337h67.368v81.017c0,5.952,4.826,10.779,10.779,10.779     c5.953,0,10.779-4.827,10.779-10.779v-91.796c0-5.952-4.826-10.779-10.779-10.779h-78.147V99.526     c0-5.952-4.826-10.779-10.779-10.779H167.074c-5.953,0-10.779,4.827-10.779,10.779v32.337H78.147     c-5.953,0-10.779,4.827-10.779,10.779v172.822H10.779C4.826,315.464,0,320.29,0,326.243v86.232     c0,5.952,4.826,10.779,10.779,10.779h134.737c5.953,0,10.779-4.827,10.779-10.779v-32.337h21.558v32.337     c0,5.952,4.826,10.779,10.779,10.779h134.737c5.953,0,10.779-4.827,10.779-10.779v-32.337h21.558v32.337     c0,5.952,4.826,10.779,10.779,10.779h134.737c5.953,0,10.779-4.827,10.779-10.779v-86.232     C512,320.291,507.174,315.465,501.221,315.465z M177.853,110.305h156.295v64.674H177.853V110.305z M134.737,401.696H21.558     v-64.674h113.179V401.696z M312.589,401.696H199.411v-64.674h113.179V401.696z M490.442,401.696H377.263v-64.674h113.179V401.696     z"/>
			<path d="M433.853,267.811c-5.953,0-10.779,4.827-10.779,10.779v1.081c0,5.952,4.826,10.779,10.779,10.779     c5.953,0,10.779-4.827,10.779-10.779v-1.081C444.632,272.637,439.806,267.811,433.853,267.811z"/>
		</g>
	</g>
</g>
<g>
</g>
<g>
</g>
<g>
</g>
<g>
</g>
<g>
</g>
<g>
</g>
<g>
</g>
<g>
</g>
<g>
</g>
<g>
</g>
<g>
</g>
<g>
</g>
<g>
</g>
<g>
</g>
<g>
</g>
</svg>
