<?xml version="1.0" encoding="iso-8859-1"?>
<!-- Generator: Adobe Illustrator 19.0.0, SVG Export Plug-In . SVG Version: 6.00 Build 0)  -->
<svg xmlns="http://www.w3.org/2000/svg" xmlns:xlink="http://www.w3.org/1999/xlink" version="1.1" id="Layer_1" x="0px" y="0px" viewBox="0 0 512 512" style="enable-background:new 0 0 512 512;" xml:space="preserve">
<g>
	<g>
		<g>
			<path d="M264.727,348.035c1.801,1.267,3.866,1.875,5.912,1.875c3.237,0,6.422-1.522,8.427-4.371l22.67-32.223     c3.271-4.649,2.154-11.068-2.496-14.339c-4.649-3.272-11.067-2.153-14.339,2.496l-22.67,32.223     C258.962,338.345,260.078,344.765,264.727,348.035z"/>
			<path d="M307.703,286.959c1.8,1.265,3.865,1.873,5.91,1.873c3.238,0,6.424-1.523,8.428-4.373l0.471-0.67     c3.269-4.65,2.15-11.07-2.5-14.339c-4.65-3.269-11.069-2.15-14.339,2.5l-0.471,0.67     C301.936,277.269,303.055,283.689,307.703,286.959z"/>
			<path d="M411.144,180.101H100.856c-12.343,0-22.384,10.041-22.384,22.384v22.127c0,12.343,10.041,22.384,22.384,22.384h12.41     c0,0,98.75,140.307,98.995,140.585v84.283c0,4.061,2.389,7.743,6.099,9.398l66.894,29.845c1.34,0.598,2.768,0.893,4.192,0.893     c1.96,0,3.91-0.559,5.603-1.658c2.925-1.898,4.69-5.147,4.69-8.633V387.58c0.246-0.279,98.995-140.585,98.995-140.585h12.41     c12.343,0,22.384-10.041,22.384-22.384v-22.127C433.528,190.142,423.486,180.101,411.144,180.101z M279.156,485.847     l-46.312-20.661v-74.111h46.312V485.847z M286.678,370.492h-61.355l-86.89-123.497h235.134L286.678,370.492z M412.945,224.611     c0,0.993-0.808,1.801-1.801,1.801H100.856c-0.993,0-1.801-0.808-1.801-1.801v-22.127c0-0.993,0.808-1.801,1.801-1.801h310.287     c0.993,0,1.801,0.808,1.801,1.801V224.611z"/>
			<path d="M145.367,159.518h221.266c5.683,0,10.291-4.609,10.291-10.291V10.291C376.925,4.609,372.316,0,366.633,0H145.367     c-5.683,0-10.291,4.609-10.291,10.291v138.935C135.075,154.909,139.684,159.518,145.367,159.518z M155.658,20.583h200.683     v118.352H155.658V20.583z"/>
			<path d="M305.541,43.07c-4.202-3.823-10.711-3.518-14.539,0.685c-3.825,4.204-3.519,10.712,0.685,14.539l23.589,21.465     l-23.589,21.465c-4.204,3.826-4.511,10.335-0.685,14.539c2.031,2.232,4.818,3.365,7.615,3.365c2.471,0,4.952-0.885,6.924-2.68     l31.953-29.077c2.143-1.951,3.365-4.715,3.365-7.612s-1.223-5.661-3.365-7.612L305.541,43.07z"/>
			<path d="M220.998,43.755c-3.825-4.205-10.336-4.51-14.539-0.685l-31.953,29.077c-2.143,1.951-3.365,4.715-3.365,7.612     s1.223,5.661,3.365,7.612l31.953,29.077c1.972,1.794,4.451,2.68,6.924,2.68c2.797,0,5.584-1.134,7.615-3.365     c3.825-4.204,3.519-10.712-0.685-14.539l-23.589-21.465l23.589-21.465C224.516,54.468,224.823,47.959,220.998,43.755z"/>
			<path d="M266.214,36.829c-5.513-1.382-11.101,1.975-12.48,7.488l-16.466,65.891c-1.378,5.514,1.976,11.101,7.489,12.479     c0.838,0.21,1.677,0.31,2.504,0.31c4.611,0,8.808-3.121,9.977-7.798l16.466-65.891C275.081,43.794,271.727,38.207,266.214,36.829     z"/>
		</g>
	</g>
</g>
<g>
</g>
<g>
</g>
<g>
</g>
<g>
</g>
<g>
</g>
<g>
</g>
<g>
</g>
<g>
</g>
<g>
</g>
<g>
</g>
<g>
</g>
<g>
</g>
<g>
</g>
<g>
</g>
<g>
</g>
</svg>
