<?xml version="1.0" encoding="iso-8859-1"?>
<!-- Generator: Adobe Illustrator 19.0.0, SVG Export Plug-In . SVG Version: 6.00 Build 0)  -->
<svg xmlns="http://www.w3.org/2000/svg" xmlns:xlink="http://www.w3.org/1999/xlink" version="1.1" id="Layer_1" x="0px" y="0px" viewBox="0 0 512 512" style="enable-background:new 0 0 512 512;" xml:space="preserve">
<g>
	<g>
		<g>
			<path d="M424.036,142.177c7.745,1.956,16.39,3.036,25.636,3.036c35.532,0,62.328-15.833,62.328-36.83V59.71     c0-20.997-26.795-36.83-62.328-36.83c-35.532,0-62.328,15.833-62.328,36.83v48.672c0,9.652,5.673,18.206,15.242,24.639     l-36.097,48.355V89.006c0-31.619-55.584-48.162-110.49-48.162c-54.907,0-110.49,16.543-110.49,48.162v92.372l-36.097-48.355     c9.569-6.433,15.242-14.988,15.242-24.639V59.71c0-20.997-26.795-36.83-62.328-36.83S0,38.714,0,59.71v48.672     c0,20.997,26.795,36.83,62.328,36.83c9.246,0,17.891-1.08,25.636-3.036l57.547,77.088v98.344l-44.357,56.788     c-10.507-4.804-23.888-7.61-38.826-7.61C26.795,366.787,0,382.621,0,403.617v48.672c0,20.996,26.795,36.83,62.328,36.83     s62.328-15.833,62.328-36.83v-48.672c0-5.62-1.936-10.864-5.429-15.54l35.756-45.776c18.168,18.04,59.784,27.371,101.018,27.371     c41.235,0,82.849-9.331,101.018-27.371l35.755,45.776c-3.494,4.676-5.429,9.92-5.429,15.54v48.672     c0,20.996,26.795,36.83,62.328,36.83c35.532,0,62.328-15.833,62.328-36.83v-48.672c0-20.996-26.795-36.83-62.328-36.83     c-14.937,0-28.318,2.806-38.826,7.61l-44.356-56.788v-98.344L424.036,142.177z M449.672,45.545     c25.764,0,39.663,10.054,39.663,14.165c0,4.111-13.899,14.165-39.663,14.165s-39.663-10.054-39.663-14.165     C410.009,55.599,423.907,45.545,449.672,45.545z M410.009,88.555c10.627,5.038,24.333,7.986,39.663,7.986     s29.036-2.948,39.663-7.986v19.829c0,4.111-13.899,14.165-39.663,14.165s-39.663-10.054-39.663-14.165V88.555z M62.328,45.545     c25.764,0,39.663,10.054,39.663,14.165c0,4.111-13.899,14.165-39.663,14.165S22.665,63.822,22.665,59.71     C22.665,55.599,36.564,45.545,62.328,45.545z M101.991,88.555v19.828c0,4.111-13.899,14.165-39.663,14.165     s-39.663-10.054-39.663-14.164V88.555l-0.01-0.014c10.63,5.043,24.334,8,39.673,8s29.044-2.956,39.673-8L101.991,88.555z      M62.328,389.452c25.764,0,39.663,10.054,39.663,14.165c0,4.111-13.899,14.165-39.663,14.165s-39.663-10.054-39.663-14.165     C22.665,399.506,36.564,389.452,62.328,389.452z M101.991,432.463v19.828c0,4.111-13.899,14.165-39.663,14.165     s-39.663-10.054-39.663-14.165v-19.828l-0.01-0.014c10.63,5.043,24.334,8,39.673,8s29.044-2.956,39.673-8L101.991,432.463z      M168.174,178.895c20.226,11.131,51.135,16.93,80.703,17.677c0.097,0.002,0.195,0.003,0.292,0.003     c6.125,0,11.167-4.888,11.323-11.046c0.16-6.255-4.785-11.456-11.041-11.615c-23.728-0.599-45.61-4.421-61.618-10.76     c-14.424-5.711-19.659-11.893-19.659-14.655v-29.109c21.26,11.745,54.665,17.777,87.825,17.777     c33.161,0,66.564-6.032,87.825-17.777V148.5c0,2.742-5.187,8.888-19.478,14.581c-5.815,2.316-8.65,8.907-6.334,14.722     c1.769,4.439,6.028,7.142,10.531,7.142c1.395,0,2.815-0.26,4.191-0.808c4.176-1.664,7.848-3.402,11.09-5.187v29.045     c0,7.625-29.88,25.498-87.825,25.498s-87.825-17.872-87.825-25.498V178.895z M343.825,321.51c0,7.625-29.88,25.498-87.825,25.498     s-87.825-17.872-87.825-25.498v-23.641c21.261,11.746,54.664,17.783,87.825,17.783s66.565-6.037,87.825-17.783V321.51z      M343.825,267.489c0,7.625-29.88,25.498-87.825,25.498s-87.825-17.872-87.825-25.498v-29.115     c21.261,11.746,54.664,17.783,87.825,17.783s66.565-6.037,87.825-17.783V267.489z M256,114.503     c-57.945,0-87.825-17.872-87.825-25.498S198.056,63.508,256,63.508c57.945,0,87.825,17.872,87.825,25.498     S313.945,114.503,256,114.503z M449.672,389.452c25.764,0,39.663,10.055,39.663,14.165c0,4.111-13.899,14.165-39.663,14.165     s-39.663-10.054-39.663-14.165C410.009,399.506,423.908,389.452,449.672,389.452z M410.009,432.461     c10.627,5.038,24.333,7.986,39.663,7.986s29.036-2.948,39.663-7.986v19.828c0,4.111-13.899,14.165-39.663,14.165     s-39.663-10.054-39.663-14.165V432.461z"/>
			<path d="M289.121,194.973c0.418,0,0.841-0.024,1.267-0.07c0.436-0.049,0.869-0.1,1.299-0.154     c6.209-0.783,10.608-6.451,9.826-12.662c-0.783-6.209-6.463-10.608-12.662-9.825c-0.321,0.041-0.643,0.079-0.968,0.116     c-6.219,0.691-10.701,6.295-10.01,12.515C278.516,190.687,283.424,194.973,289.121,194.973z"/>
		</g>
	</g>
</g>
<g>
</g>
<g>
</g>
<g>
</g>
<g>
</g>
<g>
</g>
<g>
</g>
<g>
</g>
<g>
</g>
<g>
</g>
<g>
</g>
<g>
</g>
<g>
</g>
<g>
</g>
<g>
</g>
<g>
</g>
</svg>
