<?xml version="1.0" encoding="iso-8859-1"?>
<!-- Generator: Adobe Illustrator 19.0.0, SVG Export Plug-In . SVG Version: 6.00 Build 0)  -->
<svg xmlns="http://www.w3.org/2000/svg" xmlns:xlink="http://www.w3.org/1999/xlink" version="1.1" id="Layer_1" x="0px" y="0px" viewBox="0 0 512 512" style="enable-background:new 0 0 512 512;" xml:space="preserve">
<g>
	<g>
		<g>
			<path d="M438.187,101.427L339.872,3.124c-2-2-4.712-3.124-7.541-3.124H103.978C85.622,0,70.687,14.934,70.687,33.291v445.419     c0,18.356,14.934,33.291,33.292,33.291h304.042c18.357,0,33.292-14.934,33.292-33.291V108.97     C441.311,106.141,440.188,103.427,438.187,101.427z M404.893,98.305l-0.002-0.002h-61.893V36.417l-0.003-0.004L404.893,98.305z      M419.978,478.709c0,6.594-5.364,11.957-11.957,11.957H103.978c-6.594,0-11.958-5.363-11.958-11.957V33.291     c0.001-6.594,5.365-11.957,11.958-11.957h217.685v87.636c0,5.89,4.777,10.667,10.667,10.667h87.648V478.709z"/>
			<path d="M308.683,161.287c-3.828,4.477-3.302,11.211,1.177,15.039l53.481,45.723l-53.481,45.723     c-4.478,3.828-5.004,10.561-1.177,15.039c2.11,2.467,5.101,3.736,8.112,3.736c2.452,0,4.916-0.841,6.926-2.559l62.963-53.83     c2.371-2.026,3.735-4.989,3.735-8.108c0-3.119-1.364-6.081-3.734-8.108l-62.963-53.83     C319.246,156.282,312.51,156.809,308.683,161.287z"/>
			<path d="M195.204,286.546c3.01,0,6.003-1.267,8.112-3.735c3.828-4.477,3.302-11.211-1.177-15.039l-53.481-45.723l53.481-45.723     c4.478-3.828,5.004-10.561,1.177-15.039c-3.827-4.478-10.562-5.006-15.039-1.177l-62.963,53.83     c-2.371,2.026-3.735,4.989-3.735,8.108c0,3.119,1.364,6.081,3.735,8.108l62.963,53.83     C190.287,285.706,192.751,286.546,195.204,286.546z"/>
			<path d="M229.031,304.897c1.096,0.357,2.21,0.527,3.305,0.527c4.494,0,8.674-2.864,10.141-7.367l47.333-145.409     c1.824-5.602-1.239-11.622-6.841-13.444c-5.602-1.825-11.622,1.239-13.444,6.841l-47.333,145.409     C220.366,297.054,223.43,303.074,229.031,304.897z"/>
			<path d="M306.198,346.416c0-5.89-4.777-10.667-10.667-10.667H187.733c-5.89,0-10.667,4.776-10.667,10.667     s4.777,10.667,10.667,10.667h107.798C301.421,357.083,306.198,352.306,306.198,346.416z"/>
			<path d="M146.933,335.749H145.6c-5.89,0-10.667,4.776-10.667,10.667s4.777,10.667,10.667,10.667h1.333     c5.89,0,10.667-4.777,10.667-10.667S152.823,335.749,146.933,335.749z"/>
			<path d="M366.399,383.749H207.466c-5.89,0-10.667,4.776-10.667,10.667s4.777,10.667,10.667,10.667h158.933     c5.89,0,10.667-4.777,10.667-10.667S372.29,383.749,366.399,383.749z"/>
			<path d="M302.399,431.749h-94.933c-5.89,0-10.667,4.776-10.667,10.667s4.777,10.667,10.667,10.667h94.933     c5.89,0,10.667-4.777,10.667-10.667S308.29,431.749,302.399,431.749z"/>
		</g>
	</g>
</g>
<g>
</g>
<g>
</g>
<g>
</g>
<g>
</g>
<g>
</g>
<g>
</g>
<g>
</g>
<g>
</g>
<g>
</g>
<g>
</g>
<g>
</g>
<g>
</g>
<g>
</g>
<g>
</g>
<g>
</g>
</svg>
