<?xml version="1.0" encoding="iso-8859-1"?>
<!-- Generator: Adobe Illustrator 19.0.0, SVG Export Plug-In . SVG Version: 6.00 Build 0)  -->
<svg xmlns="http://www.w3.org/2000/svg" xmlns:xlink="http://www.w3.org/1999/xlink" version="1.1" id="Layer_1" x="0px" y="0px" viewBox="0 0 512 512" style="enable-background:new 0 0 512 512;" xml:space="preserve">
<g>
	<g>
		<g>
			<path d="M80.844,0c-30.879,0-56,25.122-56,56s25.121,56,56,56c30.879,0,56-25.122,56-56S111.723,0,80.844,0z M80.844,90.667     c-19.115,0-34.667-15.551-34.667-34.667s15.552-34.667,34.667-34.667c19.115,0,34.667,15.551,34.667,34.667     S99.958,90.667,80.844,90.667z"/>
			<path d="M476.49,13.333H177.823c-5.891,0-10.667,4.777-10.667,10.667v64c0,5.89,4.775,10.667,10.667,10.667H476.49     c5.891,0,10.667-4.777,10.667-10.667V24C487.156,18.11,482.381,13.333,476.49,13.333z M465.823,77.333H188.49V34.667h277.333     V77.333z"/>
			<path d="M80.844,133.333c-30.879,0-56,25.122-56,56c0,30.878,25.121,56,56,56c30.879,0,56-25.122,56-56     C136.844,158.456,111.723,133.333,80.844,133.333z M80.844,224c-19.115,0-34.667-15.551-34.667-34.667     c0-19.116,15.552-34.667,34.667-34.667c19.115,0,34.667,15.551,34.667,34.667C115.51,208.449,99.958,224,80.844,224z"/>
			<path d="M476.49,146.667H177.823c-5.891,0-10.667,4.776-10.667,10.667v64c0,5.89,4.775,10.667,10.667,10.667H476.49     c5.891,0,10.667-4.776,10.667-10.667v-64C487.156,151.443,482.381,146.667,476.49,146.667z M465.823,210.667H188.49V168h277.333     V210.667z"/>
			<path d="M80.844,266.667c-30.879,0-56,25.122-56,56s25.121,56,56,56c30.879,0,56-25.122,56-56S111.723,266.667,80.844,266.667z      M80.844,357.333c-19.115,0-34.667-15.551-34.667-34.667S61.729,288,80.844,288c19.115,0,34.667,15.551,34.667,34.667     S99.958,357.333,80.844,357.333z"/>
			<path d="M476.49,280H177.823c-5.891,0-10.667,4.777-10.667,10.667v64c0,5.89,4.775,10.667,10.667,10.667H476.49     c5.891,0,10.667-4.777,10.667-10.667v-64C487.156,284.777,482.381,280,476.49,280z M465.823,344H188.49v-42.667h277.333V344z"/>
			<path d="M80.844,400c-30.879,0-56,25.122-56,56s25.121,56,56,56c30.879,0,56-25.122,56-56S111.723,400,80.844,400z      M80.844,490.667c-19.115,0-34.667-15.551-34.667-34.667s15.552-34.667,34.667-34.667c19.115,0,34.667,15.551,34.667,34.667     S99.958,490.667,80.844,490.667z"/>
			<path d="M80.844,312c-5.884,0-10.667,4.783-10.667,10.667s4.783,10.667,10.667,10.667s10.667-4.783,10.667-10.667     S86.727,312,80.844,312z"/>
			<path d="M80.844,178.667c-5.884,0-10.667,4.783-10.667,10.667c0,5.884,4.783,10.667,10.667,10.667s10.667-4.783,10.667-10.667     C91.51,183.45,86.727,178.667,80.844,178.667z"/>
			<path d="M80.844,45.333c-5.884,0-10.667,4.783-10.667,10.667s4.783,10.667,10.667,10.667S91.51,61.884,91.51,56     S86.727,45.333,80.844,45.333z"/>
			<path d="M476.49,413.333H177.823c-5.891,0-10.667,4.776-10.667,10.667v64c0,5.89,4.775,10.667,10.667,10.667H476.49     c5.891,0,10.667-4.777,10.667-10.667v-64C487.156,418.11,482.381,413.333,476.49,413.333z M465.823,477.333H188.49v-42.667     h277.333V477.333z"/>
		</g>
	</g>
</g>
<g>
</g>
<g>
</g>
<g>
</g>
<g>
</g>
<g>
</g>
<g>
</g>
<g>
</g>
<g>
</g>
<g>
</g>
<g>
</g>
<g>
</g>
<g>
</g>
<g>
</g>
<g>
</g>
<g>
</g>
</svg>
